<svg width="55" height="22" viewBox="0 0 55 22" fill="none" xmlns="http://www.w3.org/2000/svg">
<path d="M12.3081 9.64582C12.3081 10.0693 12.2798 10.4505 12.2234 10.7893H3.64717C3.71776 11.6363 4.01422 12.2999 4.53655 12.7798C5.05889 13.2598 5.70122 13.4998 6.46355 13.4998C7.56469 13.4998 8.34819 13.0269 8.81406 12.081H12.0116C11.6728 13.2104 11.0234 14.1421 10.0634 14.8762C9.10346 15.5962 7.92468 15.9562 6.52708 15.9562C5.3977 15.9562 4.38126 15.7092 3.47776 15.2151C2.58838 14.7068 1.88958 13.9939 1.38136 13.0763C0.887258 12.1587 0.640207 11.0999 0.640207 9.89993C0.640207 8.68585 0.887258 7.62 1.38136 6.70239C1.87546 5.78477 2.5672 5.07891 3.45659 4.58481C4.34597 4.09071 5.36947 3.84366 6.52708 3.84366C7.64234 3.84366 8.6376 4.08365 9.51286 4.56363C10.4022 5.04362 11.0869 5.7283 11.5669 6.61768C12.061 7.49295 12.3081 8.50233 12.3081 9.64582ZM9.23758 8.79879C9.22346 8.03646 8.94818 7.42942 8.41172 6.97767C7.87527 6.5118 7.21882 6.27887 6.44237 6.27887C5.70828 6.27887 5.08712 6.50475 4.5789 6.9565C4.0848 7.39413 3.78128 8.00823 3.66835 8.79879H9.23758ZM13.7096 9.85758C13.7096 8.67174 13.9426 7.62 14.4084 6.70239C14.8884 5.78477 15.5308 5.07891 16.3354 4.58481C17.1542 4.09071 18.0648 3.84366 19.0671 3.84366C19.9424 3.84366 20.7047 4.02012 21.3541 4.37305C22.0176 4.72598 22.547 5.17067 22.9423 5.70712V4.03424H25.9281V15.7656H22.9423V14.0504C22.5611 14.601 22.0317 15.0598 21.3541 15.4268C20.6906 15.7797 19.9212 15.9562 19.0459 15.9562C18.0577 15.9562 17.1542 15.7021 16.3354 15.1939C15.5308 14.6857 14.8884 13.9727 14.4084 13.0551C13.9426 12.1234 13.7096 11.0575 13.7096 9.85758ZM22.9423 9.89993C22.9423 9.17995 22.8011 8.56586 22.5188 8.05764C22.2364 7.5353 21.8553 7.14002 21.3753 6.87179C20.8953 6.58945 20.38 6.44828 19.8294 6.44828C19.2789 6.44828 18.7707 6.58239 18.3048 6.85062C17.8389 7.11884 17.4578 7.51413 17.1613 8.03646C16.8789 8.54468 16.7378 9.15172 16.7378 9.85758C16.7378 10.5634 16.8789 11.1846 17.1613 11.721C17.4578 12.2434 17.8389 12.6457 18.3048 12.9281C18.7848 13.2104 19.293 13.3516 19.8294 13.3516C20.38 13.3516 20.8953 13.2175 21.3753 12.9492C21.8553 12.6669 22.2364 12.2716 22.5188 11.7634C22.8011 11.2411 22.9423 10.6199 22.9423 9.89993ZM32.2752 6.46945V12.1446C32.2752 12.5398 32.3669 12.8292 32.5505 13.0128C32.7481 13.1822 33.0728 13.2669 33.5246 13.2669H34.901V15.7656H33.0375C30.5388 15.7656 29.2894 14.5515 29.2894 12.1234V6.46945H27.8918V4.03424H29.2894V1.13315H32.2752V4.03424H34.901V6.46945H32.2752ZM39.9979 0.095541V15.7656H37.0333V0.095541H39.9979ZM54.1501 4.03424L46.8868 21.3137H43.7316L46.2727 15.4692L41.5717 4.03424H44.8963L47.9244 12.2293L50.9949 4.03424H54.1501Z" fill="#6C5FBC"/>
</svg>
